<svg id="eUsBK4OCDR61" xmlns="http://www.w3.org/2000/svg" xmlns:xlink="http://www.w3.org/1999/xlink" viewBox="0 0 300 300" shape-rendering="geometricPrecision" text-rendering="geometricPrecision"><g transform="matrix(.724438 0 0 0.840449 47.157797 22.969471)"><path d="M283.581099,182.391865c0,0,1.920515,4.094054,4.393058,5.608133c1.649151,1.00987,4.549365,1.377443,6.44596.999998c2.305513-.458825,10.579882-4,10.579882-4l-3.996401-9.232861-13.029441-.000001q-4.393057,6.624735-4.393058,6.624731Z" transform="translate(-112.162198-2.912066)" fill="#d2dbed" stroke="#000"/><path d="M243.730412,175.750991c0,0,2.398857,6.712827,5.850686,9.316873s9.459489,3.442599,13.251854,1.673436c3.587164-1.673435,8.748146-10.974162,8.748146-10.974162l-5.160982-4.767143c0,0,0,7.390309-3.587163,10.399727s-7.019338,2.507808-10.18032.115943-5.652634-9.177722-5.652634-9.177722l-3.269587,3.413048Z" transform="matrix(1.34 0 0 1.28-201.135629-52.313148)" fill="#352f30" stroke="#000"/><path d="M-11.098758,8.244744c.073948-3.246429,10.082182-5.60148,18.205749-9.438411c5.870221-2.772628,9.936132-8.550976,11.845659-6.851288c2.262527,2.013897-1.848878,10.73824-1.848878,12.420141c0,2.953915-9.895316,4.873628-16.522733,4.873628s-13.564148,2.092761-11.679797-1.00407Z" transform="matrix(.906308-.422618 0.422618 0.906308 177.493299 156.712421)" fill="#d2dbed" stroke="#000"/><path d="M294.420117,179.132066c0,0,1.152501,3.724658-.001217,5.973049-1.360349,2.651076-4.95722,3.945453-3.344244,4.767143c3.776767,1.923979,7.122228-7.480393,7.122228-7.480393l2.806714-6.62473-13.029441-.000001q6.445961,3.364936,6.44596,3.364932Z" transform="translate(-147.136356-16.763526)" fill="#d2dbed" stroke="#000"/><path d="M372.160982,143.870475c-17.606803-4.160619-49.618925-11.62773-64.31632-6.106893c9.737801,1.001008-2.880629,17.034617-11.718756,21.17097c0,0-8.658938-14.683149-14.884452-22.615386q-5-6.370752-23.461931-6.523675l-2.618541,28.195574c0,0,11.448342,2.883811,16.448342,8.383953-.893546,9.084978-1.819851,13.580263,10.062433,15.922198s18.328243-6.83722,18.328243-6.83722s15.350893,12.266609,24,15.249009c15,4.709005,48.160982,5.359126,48.160982,5.359126s6.255172-13.915679,6.255172-28.157344c0-14.825378-6.255172-24.040312-6.255172-24.040312Z" transform="translate(-117.742082 3.935478)" fill="#384b57" stroke="#000"/><path d="M251.45648,161.396858c0-.257441-44.451225-3.41112-48.275167,1.303825-8.486145,10.463475,46.894786,23.002327,46.894786,23.002327c2.709212-11.062463,2.760762-13.921302,1.380381-24.306152Z" transform="translate(8.835904 0.365181)" fill="#2e3c48" stroke="#000"/></g><g transform="translate(.251266 0.133838)"><g transform="matrix(.560697 0.01958 0 0.647966 67.832968 58.098177)"><path d="M-3.858998,4.944105l183.558864-6.759079c11.75933,3.704195,8.978261,29.34449,8.978261,29.34449L16.265765,33.05563c.652967-17.143824-3.206031-28.442814-20.124763-28.111525Z" transform="matrix(-1 0 0 1 118.350211 105.712312)" fill="#34404d" stroke="#000"/><path d="M-5.639065,2.259738L199.946251,0c26.479462,0,21.892014,66.111261,0,66.111261L-8.496109,32.942694L-5.639065,2.259738Z" transform="matrix(.902961 0 0 0.912635-53.516476 109.540315)" fill="#4b4b67" stroke="#000"/><g transform="matrix(.636224 0.096528-.150004 0.988685 43.444882-17.068109)"><path d="M77.19623,138.436721c2.680568,16.563277-3.894365,37.33276-10.349012,37.332761l34.529662-.010278c13.329504.482088,20.885401-20.338611,19.050924-37.70227l-43.231574.379787Z" transform="translate(-100.417393-4.377778)" fill="#395160" stroke="#000"/><path d="M77.19623,138.436721c2.680568,16.563277-3.894365,37.33276-10.349012,37.332761l34.529662-.010278c13.329504.482088,20.885401-20.338611,19.050924-37.70227l-43.231574.379787Z" transform="translate(-100.417393-4.377778)" fill="#395160" stroke="#000"/></g><path d="M-13.451797,-10.900754c0-9.214119,1.184873-17.753123,6.038774-17.753123c4.434581,0,7.282625,5.864654,7.936191,16.049496s-2.86114,15.928163-7.71504,15.928163-6.259925-5.010417-6.259925-14.224536Z" transform="matrix(.905015 0.095121-.091985 0.875179-54.535165 137.385044)" fill="#7c8286" stroke="#000"/><g><g transform="matrix(.07-.000007 0.000018 0.17585-35.100183 101.081404)"><path d="M0.011,-15.406041l225.538218-5.101463c35.715556-.208914,27.83906,96.391988-.012994,96.5268L0,66.111261c.004497-33.322075.009721-72.038663.011-81.517302Z" transform="matrix(1 0 0 0.53-561.402726 100.154606)" fill="#7e7c7e" stroke="#000" stroke-width="7"/><path d="M-20.786766,0c0-18.256121,6.548913-47.177274,20.797593-47.177274s19.470006,28.921153,19.470006,47.177274-5.232153,33.055631-19.480833,33.055631-20.786766-14.79951-20.786766-33.055631Z" transform="matrix(1 0 0 0.53-562.49803 117.293128)" fill="#d2dbed" stroke="#000" stroke-width="7"/></g></g><path d="M3.105452,2.180145L219.201701,3.353342c7.029343,9.458863,5.38721,29.702288,5.38721,29.702288l-190.104973.000006h-11.031554l-7.186619-.000006c.348468-9.149136,1.135312-15.229296-1.161188-21.406985-2.147207-5.776084-4.773835-8.568015-11.999125-9.4685Z" transform="translate(-64.293584 101.712312)" fill="#7e8592" stroke="#000"/><path d="M150.327832,120.615646q2.864119,0,12.928796,11.450329h80.887686h21.819164c0,0,1.323052-11.351223-.771592-16.76221-4.596364-11.873552-9.762208-12.310982-9.762208-12.310982L80.945849,107.016292c9.376643,1.958219,10.246982,11.690443,9.363707,17.16752q57.154157-3.568166,60.018276-3.568166Z" transform="translate(-104.896559-3.032221)" fill="#446161" stroke="#000"/></g></g><path d="M-4.65551,0.274557c0-1.76316,3.456693-3.254515,5.204278-3.254515s4.10864,1.682798,4.10864,3.445958-2.909823,2.726483-4.657408,2.726483-4.65551-1.154766-4.65551-2.917926Z" transform="matrix(1 0 0 1.430769 168.248301 170.300157)" fill="#d2dbed" stroke="#000"/><path d="M74.60439,129.645645c2.181509,1.579106,7.099628,1.728094,8.808459-.336201s1.909892-3.956202,1.909892-3.956202l-13.158229-.21204c0,0,.258368,2.925338,2.439878,4.504443Z" transform="translate(.000003 0.000001)" fill="#787ab7" stroke="#000" stroke-width="0.6"/><path d="M74.60439,129.645645c2.181509,1.579106,7.301348,2.064295,9.010179,0s1.708172-4.292403,1.708172-4.292403l-12.934453-.21204c0,0,.034592,2.925338,2.216102,4.504443Z" transform="translate(22.861654 0.268962)" fill="#787ab7" stroke="#000" stroke-width="0.6"/><path d="M74.60439,129.645645c2.181509,1.579106,7.301348,2.064295,9.010179,0s1.708172-4.292403,1.708172-4.292403l-12.934453-.21204c0,0,.034592,2.925338,2.216102,4.504443Z" transform="translate(51.300242 0.613719)" fill="#787ab7" stroke="#000" stroke-width="0.6"/><path d="M74.60439,128.220932c2.181509,1.079649,7.301348,1.411378,9.010179,0s1.708172-2.934756,1.708172-2.934756l-12.934453-.144974c0,0,.034592,2.000081,2.216102,3.07973Z" transform="matrix(.81 0 0 1 37.944921 0.268962)" fill="#6c57a4" stroke="#000" stroke-width="0.6"/><path d="M74.60439,128.220932c2.181509,1.079649,7.301348,1.411378,9.010179,0s1.708172-2.934756,1.708172-2.934756l-12.934453-.144974c0,0,.034592,2.000081,2.216102,3.07973Z" transform="matrix(.81 0 0 1 66.28279 0.613719)" fill="#6c57a4" stroke="#000" stroke-width="0.6"/><path d="M74.60439,128.220932c2.181509,1.079649,7.099628,1.181514,8.808459-.229864s1.909892-2.704892,1.909892-2.704892l-12.934453-.144974c0,0,.034592,2.000081,2.216102,3.07973Z" transform="matrix(.81 0 0 1 15.08327 0.000001)" fill="#6c57a4" stroke="#000" stroke-width="0.6"/></svg>
