<svg id="eCt8OfUlnws1" xmlns="http://www.w3.org/2000/svg" xmlns:xlink="http://www.w3.org/1999/xlink" viewBox="20 118 198 83" shape-rendering="geometricPrecision" text-rendering="geometricPrecision"><g transform="matrix(.560697 0.01958 0 0.647966 67.832968 58.098177)"><path d="M283.581099,182.391865c0,0,1.920515,4.094054,4.393058,5.608133c1.649151,1.00987,4.549365,1.377443,6.44596.999998c2.305513-.458825,10.579882-4,10.579882-4l-3.996401-9.232861-13.029441-.000001q-4.393057,6.624735-4.393058,6.624731Z" transform="translate(-112.162198-10.051484)" fill="#d2dbed" stroke="#000" stroke-width="1.8"/><path d="M243.730412,175.750991c0,0,2.613086,6.712827,6.37318,9.316873s10.304266,3.442599,14.435307,1.673436c3.907515-1.673435,9.529397-10.974162,9.529397-10.974162l-5.621882-4.767143c0,0,0,7.390309-3.907514,10.399727s-7.646198,2.507808-11.089471.115943-6.15744-9.177722-6.15744-9.177722l-3.561577,3.413048Z" transform="matrix(.866025 0.5-.5 0.866025 9.765341-115.496068)" fill="#352f30" stroke="#000" stroke-width="1.8"/><path d="M294.420117,179.132066c0,0,1.152501,3.724658-.001217,5.973049-1.360349,2.651076-4.95722,3.945453-3.344244,4.767143c3.776767,1.923979,7.122228-7.480393,7.122228-7.480393l2.806714-6.62473-13.029441-.000001q6.445961,3.364936,6.44596,3.364932Z" transform="translate(-147.136356-24.560306)" fill="#d2dbed" stroke="#000" stroke-width="1.8"/><path d="M-11.098758,8.244744c.073948-3.246429,10.082182-5.60148,18.205749-9.438411c5.870221-2.772628,9.936132-8.550976,11.845659-6.851288c2.262527,2.013897-1.848878,10.73824-1.848878,12.420141c0,2.953915-9.895316,4.873628-16.522733,4.873628s-13.564148,2.092761-11.679797-1.00407Z" transform="matrix(.906308-.422618 0.422618 0.906308 177.493299 145.286793)" fill="#d2dbed" stroke="#000" stroke-width="1.8"/><path d="M372.160982,143.870475c-17.606803-4.160619-49.618925-11.62773-64.31632-6.106893c9.737801,1.001008-2.880629,17.034617-11.718756,21.17097c0,0-8.658938-14.683149-14.884452-22.615386q-5-6.370752-23.461931-6.523675l-2.618541,28.195574c0,0,11.448342,2.883811,16.448342,8.383953-.893546,9.084978-1.819851,13.580263,10.062433,15.922198s18.328243-6.83722,18.328243-6.83722s15.350893,12.266609,24,15.249009c15,4.709005,48.160982,5.359126,48.160982,5.359126s6.255172-13.915679,6.255172-28.157344c0-14.825378-6.255172-24.040312-6.255172-24.040312Z" transform="translate(-117.742082-7.807878)" fill="#384b57" stroke="#000" stroke-width="1.8"/><path d="M250.431114,160.846473c0-.257441-43.425859-2.860735-47.249801,1.85421-8.486145,10.463475,46.894786,23.002327,46.894786,23.002327c2.709212-11.062463,1.735396-14.471687.355015-24.856537Z" transform="translate(8.835904-12.369716)" fill="#2e3c48" stroke="#000" stroke-width="1.8"/><path d="M-3.858998,4.944105l183.558864-6.759079c11.75933,3.704195,8.978261,29.34449,8.978261,29.34449L16.265765,33.05563c.652967-17.143824-3.206031-28.442814-20.124763-28.111525Z" transform="matrix(-1 0 0 1 118.350211 105.712312)" fill="#34404d" stroke="#000" stroke-width="1.8"/><path d="M-5.639065,2.259738L199.946251,0c26.479462,0,21.892014,66.111261,0,66.111261L-8.496109,32.942694L-5.639065,2.259738Z" transform="matrix(.902961 0 0 0.912635-53.516476 109.540315)" fill="#4b4b67" stroke="#000" stroke-width="1.8"/><path d="M77.19623,138.436721c2.680568,16.563277-5.579177,36.354427-12.033824,36.354428l36.214474.968055c12.135623.326505,28.948086-20.121687,19.050924-37.70227l-43.231574.379787Z" transform="matrix(.992546 0.121869-.121869 0.992546-80.5756-37.955541)" fill="#395160" stroke="#000" stroke-width="1.8"/><path d="M-13.451797,-10.900754c0-9.214119,1.184873-17.753123,6.038774-17.753123c4.434581,0,7.282625,5.864654,7.936191,16.049496s-2.86114,15.928163-7.71504,15.928163-6.259925-5.010417-6.259925-14.224536Z" transform="matrix(.905015 0.095121-.091985 0.875179-54.535165 137.385044)" fill="#7c8286" stroke="#000" stroke-width="1.8"/><path d="M3.105452,2.180145L219.201701,3.353342c7.029343,9.458863,5.38721,29.702288,5.38721,29.702288l-190.104973.000006h-11.031554l-7.186619-.000006c.348468-9.149136,1.135312-15.229296-1.161188-21.406985-2.147207-5.776084-4.773835-8.568015-11.999125-9.4685Z" transform="translate(-64.293584 101.712312)" fill="#7e8592" stroke="#000" stroke-width="1.8"/><path d="M12.62917,132.114104c-3.711336,1.608918-4.458983,4.956422-1.658898,8.197902l18.880232,2.730741c2.613257-1.587244,3.831437-5.902783.910616-9.923748l-18.13195-1.004895Z" transform="matrix(.996195-.087156 0.087156 0.996195-102.361397-13.923618)" fill="#7e8592" stroke="#000" stroke-width="1.8"/><path d="M-4.025763,-0.130791c0-1.76316,2.422179-3.975821,4.169764-3.975821s5.147964,1.678438,4.513407,4.572612-3.056736,3.669944-4.804321,3.669944-3.200051-1.842454-3.87885-4.266735Z" transform="translate(164.390035 165.526434)" fill="#d2dbed" stroke="#000" stroke-width="1.8"/><path d="M-1.509065,-0.222792c0-2.13084,1.001754-3.725656,2.385123-3.630413s1.764994,1.306036,1.764994,3.436876-1.353029,3.964246-2.337426,3.964246-1.812691-1.639869-1.812691-3.770709Z" transform="matrix(1.270341 0 0 1.09406-79.430125 120.889443)" fill="#d2dbed" stroke="#000" stroke-width="1.8"/><path d="M150.327832,120.615646q2.864119,0,12.928796,11.450329h80.887686h21.819164c0,0,1.323052-11.351223-.771592-16.76221-4.596364-11.873552-9.762208-12.310982-9.762208-12.310982L80.945849,107.016292c9.376643,1.958219,10.246982,11.690443,9.363707,17.16752q57.154157-3.568166,60.018276-3.568166Z" transform="translate(-104.699693-3.03817)" fill="#446161" stroke="#000" stroke-width="1.8"/><path d="M75.44414,132.23618c3.008151,2.487261,10.068057,3.251485,12.424418,0s2.355452-6.760992,2.355452-6.760992l-17.835722-.333986c0,0,.0477,4.607719,3.055852,7.094978Z" transform="matrix(.999848-.017452 0.017452 0.999848 17.186923-22.459002)" fill="#787ab7" stroke="#000" stroke-width="1.8"/><path d="M76.365311,129.409036c2.532509,2.094832,6.063647,1.853367,7.827757-.589773s1.309836-3.642185,1.309836-3.642185l-11.440364-.148033c0,0-.103751,3.136233,2.302771,4.379991Z" transform="matrix(.999848-.017452 0.017452 0.999848 18.654149-22.459)" fill="#6c57a4" stroke="#000" stroke-width="1.8"/><path d="M75.44414,132.23618c3.008151,2.487261,10.068057,3.251485,12.424418,0s2.355452-6.760992,2.355452-6.760992l-17.835722-.333986c0,0,.0477,4.607719,3.055852,7.094978Z" transform="matrix(.999848-.017452 0.017452 0.999848-25.741427-21.605042)" fill="#787ab7" stroke="#000" stroke-width="1.8"/><path d="M75.44414,132.23618c3.008151,2.487261,10.068057,3.251485,12.424418,0s2.355452-6.760992,2.355452-6.760992l-17.835722-.333986c0,0,.0477,4.607719,3.055852,7.094978Z" transform="matrix(.999848-.017452 0.017452 0.999848-61.630383-20.638193)" fill="#787ab7" stroke="#000" stroke-width="1.8"/><path d="M76.365311,129.409036c2.532509,2.094832,6.063647,1.853367,7.827757-.589773s1.309836-3.642185,1.309836-3.642185l-11.440364-.148033c0,0-.103751,3.136233,2.302771,4.379991Z" transform="matrix(.999848-.017452 0.017452 0.999848-60.163157-20.638191)" fill="#6c57a4" stroke="#000" stroke-width="1.8"/><path d="M76.365311,129.409036c2.532509,2.094832,6.063647,1.853367,7.827757-.589773s1.309836-3.642185,1.309836-3.642185l-11.440364-.148033c0,0-.103751,3.136233,2.302771,4.379991Z" transform="matrix(.999848-.017452 0.017452 0.999848-24.274201-21.60504)" fill="#6c57a4" stroke="#000" stroke-width="1.8"/></g></svg>
