<svg id="eDgTfKUhVsu1" xmlns="http://www.w3.org/2000/svg" xmlns:xlink="http://www.w3.org/1999/xlink" viewBox="0 0 300 300" shape-rendering="geometricPrecision" text-rendering="geometricPrecision"><defs><filter id="eDgTfKUhVsu3-filter" x="-150%" width="400%" y="-150%" height="400%"><feGaussianBlur id="eDgTfKUhVsu3-filter-blur-0" stdDeviation="1,3" result="result"/><feGaussianBlur id="eDgTfKUhVsu3-filter-drop-shadow-0-blur" in="result" stdDeviation="0,0"/><feOffset id="eDgTfKUhVsu3-filter-drop-shadow-0-offset" dx="0" dy="0" result="tmp"/><feFlood id="eDgTfKUhVsu3-filter-drop-shadow-0-flood" flood-color="#000"/><feComposite id="eDgTfKUhVsu3-filter-drop-shadow-0-composite" operator="in" in2="tmp"/><feMerge id="eDgTfKUhVsu3-filter-drop-shadow-0-merge" result="result"><feMergeNode id="eDgTfKUhVsu3-filter-drop-shadow-0-merge-node-1"/><feMergeNode id="eDgTfKUhVsu3-filter-drop-shadow-0-merge-node-2" in="result"/></feMerge></filter><filter id="eDgTfKUhVsu10-filter" x="-150%" width="400%" y="-150%" height="400%"><feGaussianBlur id="eDgTfKUhVsu10-filter-blur-0" stdDeviation="0.2,0" result="result"/></filter></defs><path d="M65.022512,193.31552l20.360124-.385398c4.420102,5.270121,4.649944,14.16929,1.099475,19.973798l-20.157043.183245c3.740085-4.930113,2.777537-15.861555-1.302556-19.771645Z" transform="translate(42.137365-46.462231)" fill="#9c7a41" stroke="#000" stroke-width="0.8" stroke-miterlimit="1"/><path d="M-2.586902,1.364905c0-1.982087-.048852-8.030304,2.1374-8.030304s6.466103,2.036363,6.835594,7.854546-2.801885,8.145454-4.988137,8.145454-3.984857-5.987609-3.984857-7.969696Z" transform="translate(119.14443 155.709042)" filter="url(#eDgTfKUhVsu3-filter)" fill="#c6e488" stroke-width="0.8" stroke-linejoin="round" stroke-dashoffset="31.4"/><path d="M73.182475,195.41825c.761246-2.58625,8.983938-1.769751,11.177996-.366492c5.511908,1.949778,2.015704,4.581148.183246,5.31413s-5.438705-.889202-5.680621,3.115179c-.114166,1.88976,7.418372-.812648,7.51308,1.465967.072947,1.755067-1.950217,2.267119-3.664917,2.382196s-6.495405-1.120625-8.062817-2.748688c-.953191-.990075.02794-1.752216.732983-2.931933c1.355153-2.267514,7.442445-1.208963,7.329834-3.848163-.075576-1.771239-5.863867-1.832458-5.863867-1.832458s-3.971073.490393-3.664917-.549738Z" transform="matrix(.88 0 0 0.67 52.700322 21.320905)" fill="#b4ab5b" stroke-width="0.8"/><path d="M79.967136,193.735135c1.052933-1.634212,5.890494-1.280753,6.461065.579835.460848,1.50279-2.490235,2.837527-3.976041,3.230533-.730662.193265-1.88414-.872596-2.485024-.414167-.774564.590933-1.195174,2.513565-.57984,3.313363.882138,1.146586,3.478721-.165004,4.804383.414175c2.256845.98601,2.733528,2.485024,2.733528,2.485024s1.526628,2.230758-.414171,3.97604c-1.274971,1.14653-4.804653,1.452698-5.715558-.000001-.454639-.725052,1.883822-.799122,2.485024-1.408182.507465-.514098.90495-1.51418.911177-2.236523.005557-.644648-1.28201-.82893-1.905187-.99401-.649031-.171929-1.595801.00404-2.236523-.082834-.860111-.116621-2.248864.064163-2.816361-.662674-.948176-1.214401-.885933-3.875191-.000001-5.135719c1.139022-1.620631,5.811032-1.135256,6.212563-2.236523.194299-.5329-3.786249-.351521-3.479034-.828337Z" transform="matrix(.59 0 0 0.9 74.015721-23.558429)" filter="url(#eDgTfKUhVsu10-filter)" fill="#ff0" stroke-width="0.8"/><path d="M55.274992,187.806988l35.192221-.192075c10.51862,8.690991,9.246758,24.082554,2.084872,31.769899l-4.268954.013836-28.378148.016362c7.089617-7.602873,7.122115-23.04509-4.629991-31.608022Z" transform="matrix(.839979-.006006 0.00715 0.999974 35.379597-44.417593)" fill="#687663" stroke="#000" stroke-width="0.8" stroke-miterlimit="1"/><path d="M3.674416,3.387496l.392179,2.847163C-8.160919,7.716173,-9.191751,21.422411,3.873047,21.307197l.215723,5.818412c-18.741213-5.472668-17.038853-19.584681-.414354-23.738113Z" transform="matrix(.71934-.694658 0.694658 0.71934 75.042886 169.511934)" fill="#d2dbed" stroke="#000" stroke-width="0.8"/><path d="" transform="matrix(.84 0 0 1 45.112025-45.102203)" fill="none" stroke="#000" stroke-width="0.8" stroke-miterlimit="1"/><path d="M-5.68752,-3.580132c0-11.341357,6.233268-13.462552,8.8877-13.462552s10.038647,5.336217,10.038647,16.677574-6.290144,15.130347-6.290144,15.130347-12.947914-4.941775-12.947914-4.941775.311711-9.679077.311711-13.403594Z" transform="matrix(.84 0 0 1 75.165302 160.167562)" fill="#687564" stroke="#000" stroke-width="0.8" stroke-miterlimit="1"/><path d="M73.304993,194.024401l12.580288-.170004c3.554549,5.086302,4.527715,10.62594,1.360032,16.660382l-13.94032-.340008c3.740085-4.930113,4.080093-12.24028,0-16.15037Z" transform="matrix(.84 0 0 1 4.666182-44.906728)" fill="#475638" stroke="#000" stroke-width="0.8" stroke-miterlimit="1"/><path d="M56.889855,247.692526c-3.481584-2.845579-13.686069-24.85084-9.488016-32.776782l12.938203-1.29382c-2.527222,8.048767,8.934377,22.982265,14.663297,27.817137-3.349626,1.596223-9.735049,6.642437-18.113484,6.253465Z" transform="translate(40.777336-45.102202)" fill="#3d3f35" stroke="#000" stroke-width="0.8"/><path d="M54.982883,214.301784c-2.059171,9.543622,4.867408,24.684785,11.794497,31.388478l8.283433-4.161589c-6.955646-5.694513-15.383716-18.946868-14.754236-28.139525l-5.323694.912636Z" transform="translate(40.777334-45.102199)" fill="#606060" stroke="#000" stroke-width="0.8"/><g transform="translate(.000001 0)"><path d="M56.637302,187.640046l29.761303-.00845c10.51862,8.690991,11.907096,24.096069,4.74521,31.783414h-31.238832c7.089617-7.602873,8.484425-23.212032-3.267681-31.774964Z" transform="matrix(.839979-.006006 0.00715 0.999974 29.299763-44.191801)" fill="#49463c" stroke="#000" stroke-width="0.8" stroke-miterlimit="1"/></g><path d="M15.673672,186.204226c8.427857,6.261049,8.906462,23.088084,4.250097,31.280717-2.325921,3.381165-8.241333-.805708-11.981419-3.185763c4.900415.126839,4.246528-24.39285-1.618892-24.184865c2.504872-3.198267,5.356583-7.550644,9.350214-3.910089Z" transform="matrix(.84 0 0 1 55.60966-44.158583)" fill="#546861" stroke="#000" stroke-width="0.8" stroke-miterlimit="1"/><path d="M7.327877,182.634134c-4.350237,1.245853-3.165159,24.354869,1.020021,24.310558c8.213964.741869,7.120049-24.002846-1.020021-24.310558Z" transform="matrix(.84 0 0 0.989616 54.752843-34.8319)" fill="#9b9a9a" stroke="#000" stroke-width="0.8" stroke-miterlimit="1"/><path d="M-3.7263,0.266939c-1.320789-1.680857-1.92013-5.798964.088804-5.798964s3.94062,2.273434,4.395307,4.243744s1.062166,3.890541-.757812,4.243745-2.40551-1.007668-3.726299-2.688525Z" transform="matrix(.997564 0.069756-.069756 0.997564 96.945368 154.171859)" fill="#c66f63" stroke="#000" stroke-width="0.8"/></svg>
