<svg id="efhNJSnstvx1" xmlns="http://www.w3.org/2000/svg" xmlns:xlink="http://www.w3.org/1999/xlink" viewBox="0 0 300 300" shape-rendering="geometricPrecision" text-rendering="geometricPrecision"><g transform="matrix(.724438 0 0 0.840449 47.157797 22.595165)"><path d="M283.581099,182.391865c0,0,1.920515,4.094054,4.393058,5.608133c1.649151,1.00987,4.549365,1.377443,6.44596.999998c2.305513-.458825,10.579882-4,10.579882-4l-3.996401-9.232861-13.029441-.000001q-4.393057,6.624735-4.393058,6.624731Z" transform="translate(-112.162198-2.912066)" fill="#d2dbed" stroke="#000"/><path d="M243.730412,175.750991c0,0,1.425049,5.97819,5.850686,9.316873c2.47802,1.869409,7.599015,1.999999,9.809675,2c6.158802,0,12.190325-11.300726,12.190325-11.300726l-5.160982-4.767143c0,0-1.190327,7.676001-5.420117,10.067869s-5.839018,2.391865-9,0-5-8.729921-5-8.729921l-3.269587,3.413048Z" transform="translate(-112.162198-4.064254)" fill="#d2dbed" stroke="#000"/><path d="M-10.014357,-1.908272c3.815605-1.974519,3.767769-1.856122,6.891784-2.588939c6.225072-.512281,12.133634.339822,14.319097,1.026532c2.889695.907991,8.307921,5.354942,8.307921,7.036843C19.504445,6.520079,6.627417,5.348537,0,5.348537s-10.014357-4.302894-10.014357-7.256809Z" transform="matrix(.906308-.422618 0.422618 0.906308 185 157)" fill="#d2dbed" stroke="#000"/><path d="M294.420117,179.132066c0,0,1.152501,3.724658-.001217,5.973049-1.360349,2.651076-4.95722,3.945453-3.344244,4.767143c3.776767,1.923979,7.122228-7.480393,7.122228-7.480393l2.806714-6.62473-13.029441-.000001q6.445961,3.364936,6.44596,3.364932Z" transform="translate(-147.136356-16.763526)" fill="#d2dbed" stroke="#000"/><path d="M372.160982,144.655886c0,0-45.505103-1.546587-56,0-8.918594,1.314294-18.793823,14.23523-27,7.097961-8.160982-7.097961-5.774486-6.850126-12-14.782363q-5-6.370752-17.770208-16.159611l-4.229792,37.179192c0,0,11.839018,1.914872,16.839018,7.415014c9.076749,9.984681,5.160982,5.016945,9.160982,10.053917c4.414998,5.559556,9.707354-5.924425,18.839018,0C310.080491,182,315.350893,187.726605,324,190.709005c15,4.709005,48.160982,5.359126,48.160982,5.359126" transform="translate(-117.742082 3.935478)" fill="#446161" stroke="#000"/><path d="M252.454132,162.312704c0-.257441-45.448877-4.326966-49.272819.387979-8.486145,10.463475,49.272819,22.387248,49.272819,22.387248q0-22.389067,0-22.775227Z" transform="translate(0 0.000001)" fill="#3e3543" stroke="#000"/><path d="M244,148.591361c10.190732,14.181807,6.958255,38.107403,0,51.008637l10.4189.403609c7.348389-13.197763,9.866681-38.840253,0-51.412245L244,148.591361Z" transform="translate(0 0.000002)" fill="#787781" stroke="#000"/></g><g transform="matrix(.554429 0 0 0.663473 67.99172 56.477662)"><path d="M-3.858998,4.944105l196.241866-5.590763c14.808775,1.302071,15.749105,28.334554,15.749105,28.334554L16.265765,33.05563c.652967-17.143824-3.206031-28.442814-20.124763-28.111525Z" transform="matrix(-1 0 0 1 110.670669 105.944369)" fill="#34404d" stroke="#000"/><path d="M0,0h199.946251c26.479462,0,21.892014,66.111261,0,66.111261L0,66.111261L0,0Z" transform="translate(-70.89731 106.651552)" fill="#565a67" stroke="#000"/><path d="M-20.786766,0c0-18.256121,6.538086-33.055631,20.786766-33.055631c13.017762,0,18.50955,12.352951,19.361252,28.408991.080534,1.518209.119581,3.069526.119581,4.64664C19.480833,18.256121,14.24868,33.055631,0,33.055631s-20.786766-14.79951-20.786766-33.055631Z" transform="translate(-71.407026 139.707183)" fill="#7c8286" stroke="#000"/><path d="M77.19623,138.436721c2.680568,16.563277-4.282736,37.322483-10.737383,37.322484l34.918033-.000001c13.329504.482088,20.885401-20.338611,19.050924-37.70227l-43.231574.379787Z" transform="translate(-112.162199-2.996388)" fill="#395160" stroke="#000"/><path d="M-2.953844,4.944104L219.201701,3.353342c7.029343,9.458863,5.38721,29.702288,5.38721,29.702288l-190.104973.000006h-11.031554l-7.186619-.000006c.348468-9.149136-.588085-16.633645-4.108842-21.574193C9.080419,7.164293,4.935877,4.789614,-2.953844,4.944104Z" transform="translate(-71.973126 101.944369)" fill="#34404d" stroke="#000"/><path d="M150.327832,120.615646q2.864119,0,12.928796,11.450329h80.887686h21.819164c0,0,1.323052-11.351223-.771592-16.76221-4.596364-11.873552-9.762208-12.310982-9.762208-12.310982L30.863902,108.097876c10.850987,0,17.098943,6.647686,21.63833,18.015041q94.961481-5.497271,97.8256-5.497271Z" transform="translate(-112.576101-2.800164)" fill="#446161" stroke="#000"/><g><g transform="matrix(.130045 0.000114-.000167 0.19 6.450296 96.890221)"><path d="M0,0h199.946251c26.479462,0,21.998333,65.22758.106319,65.22758L0,66.111261L0,0Z" transform="translate(-821.242621 94.396152)" fill="#565f62" stroke="#000" stroke-width="6"/><path d="M-20.786766,0c0-18.256121,6.538086-33.055631,20.786766-33.055631s19.480833,14.79951,19.480833,33.055631-5.232153,33.055631-19.480833,33.055631-20.786766-14.79951-20.786766-33.055631Z" transform="translate(-821.752337 127.451783)" fill="#d2dbed" stroke="#000" stroke-width="4"/></g><g transform="matrix(.130045 0.000114-.000167 0.19 6.450296 114.01458)"><path d="M0,0h199.946251c39.909213-.006361,30.966256,66.106963,0,66.111261L0,66.111261L0,0Z" transform="translate(-821.239893 96.069564)" fill="#565f62" stroke="#000" stroke-width="6"/><path d="M-20.786766,0c0-18.256121,6.538086-33.055631,20.786766-33.055631s19.480833,14.79951,19.480833,33.055631-5.882798,34.86603-20.131478,34.86603-20.136121-16.609909-20.136121-34.86603Z" transform="translate(-821.752337 127.451783)" fill="#d2dbed" stroke="#000" stroke-width="4"/></g><g transform="matrix(.643505 0 0 1 111.634765-.375255)"><path d="M80.511289,137.880013c2.680568,16.563277-9.676058,37.702269-16.130705,37.70227l36.996296.176921c13.329504.482088,20.885401-20.338611,19.050924-37.70227l-39.916515-.176921Z" transform="matrix(1.90141 0 0 0.990209-194.217754-1.091783)" fill="#395160" stroke="#000"/><ellipse rx="15.512772" ry="2.991065" transform="translate(-7.018624 142.889648)" fill="#6fa8b6" stroke-width="0"/><ellipse rx="15.512772" ry="2.991065" transform="translate(-11.181848 154.994674)" fill="#6fa8b6" stroke-width="0"/><ellipse rx="15.512772" ry="2.991065" transform="translate(-14.667427 165.691749)" fill="#6fa8b6" stroke-width="0"/></g></g><g transform="matrix(.643505 0 0 1-8.213209-.891059)"><ellipse rx="15.512772" ry="2.991065" transform="translate(-13.649428 142.69825)" fill="#6fa8b6" stroke-width="0"/><ellipse rx="15.512772" ry="2.991065" transform="translate(-13.649428 154.994674)" fill="#6fa8b6" stroke-width="0"/><ellipse rx="15.512772" ry="2.991065" transform="translate(-18.584586 165.691749)" fill="#6fa8b6" stroke-width="0"/></g></g></svg>
